<?xml version="1.0" encoding="UTF-8" standalone="no"?>
<!-- Created with Inkscape (http://www.inkscape.org/) 
By wikipedia User:Stannered - Image:Distancedisplacement.png, 
CC BY-SA 3.0, https://commons.wikimedia.org/w/index.php?curid=1713901
-->
<svg
   xmlns:svg="http://www.w3.org/2000/svg"
   xmlns="http://www.w3.org/2000/svg"
   version="1.0"
   width="322.92999"
   height="199.7"
   id="svg2">
  <defs
     id="defs4">
    <marker
       refX="0"
       refY="0"
       orient="auto"
       style="overflow:visible"
       id="StopM">
      <path
         d="M 0,5.65 L 0,-5.65"
         transform="scale(0.4,0.4)"
         style="fill:none;fill-opacity:0.75;fill-rule:evenodd;stroke:#000000;stroke-width:1pt"
         id="path3275" />
    </marker>
    <marker
       refX="0"
       refY="0"
       orient="auto"
       style="overflow:visible"
       id="Arrow2Send">
      <path
         d="M 8.7185878,4.0337352 L -2.2072895,0.016013256 L 8.7185884,-4.0017078 C 6.97309,-1.6296469 6.9831476,1.6157441 8.7185878,4.0337352 z "
         transform="matrix(-0.3,0,0,-0.3,0.69,0)"
         style="font-size:12px;fill-rule:evenodd;stroke-width:0.625;stroke-linejoin:round"
         id="path3352" />
    </marker>
    <marker
       refX="0"
       refY="0"
       orient="auto"
       style="overflow:visible"
       id="Arrow2Mend">
      <path
         d="M 8.7185878,4.0337352 L -2.2072895,0.016013256 L 8.7185884,-4.0017078 C 6.97309,-1.6296469 6.9831476,1.6157441 8.7185878,4.0337352 z "
         transform="scale(-0.6,-0.6)"
         style="font-size:12px;fill-rule:evenodd;stroke-width:0.625;stroke-linejoin:round"
         id="path3358" />
    </marker>
  </defs>
  <g
     transform="translate(-225.54991,-357.625)"
     id="layer1">
    <g
       transform="translate(3.0008995,3.0008144)"
       id="g3464">
      <g
         style="fill:#000080"
         id="g3415">
        <path
           d="M 441.96875,363.90625 C 439.69074,364.11025 437.56393,365.36473 435.4375,367.21875 C 433.31107,369.07277 431.16376,371.58068 428.90625,374.5 C 424.39124,380.33865 419.49873,387.89819 414.15625,395.4375 C 408.81377,402.97681 403.03581,410.45895 396.875,416.09375 C 390.71419,421.72855 384.2343,425.46803 377.46875,425.78125 C 370.42487,426.10437 362.5559,422.87322 353.28125,419.3125 C 344.0066,415.75178 333.31506,411.91238 320.53125,411.5 C 313.88659,411.28566 305.0961,413.53604 295.46875,416.90625 C 285.8414,420.27646 275.4147,424.80291 265.78125,429.375 C 246.51434,438.51919 230.40625,447.78125 230.40625,447.78125 L 231.90625,450.375 C 231.90625,450.375 247.91733,441.18016 267.0625,432.09375 C 276.63508,427.55055 286.99937,423.03366 296.46875,419.71875 C 305.93813,416.40384 314.56964,414.31071 320.4375,414.5 C 332.67873,414.89488 342.9639,418.55263 352.1875,422.09375 C 361.4111,425.63487 369.56303,429.14963 377.59375,428.78125 C 385.35886,428.42176 392.42822,424.20886 398.875,418.3125 C 405.32178,412.41614 411.20436,404.76176 416.59375,397.15625 C 421.98314,389.55074 426.89273,381.98757 431.28125,376.3125 C 433.47551,373.47496 435.52911,371.13667 437.40625,369.5 C 439.28339,367.86333 440.96673,366.98992 442.25,366.875 C 443.91529,366.72587 446.32923,367.6122 449.125,369.625 C 451.92077,371.6378 455.05486,374.7148 458.3125,378.53125 C 464.82779,386.16416 471.79715,396.77105 477.84375,408.0625 C 483.89035,419.35395 489.03134,431.33496 491.90625,441.625 C 494.78116,451.91504 495.20408,460.49544 492.75,464.71875 C 487.37785,473.96387 473.84088,479.16758 459.6875,483.03125 C 445.53412,486.89492 431.05386,489.33123 423.5,494.65625 C 414.12702,501.26364 412.92325,512.3624 414.21875,521.9375 C 415.51425,531.5126 419.29471,540.05814 420,541.90625 L 422.78125,540.84375 C 421.92624,538.60332 418.41145,530.57748 417.1875,521.53125 C 415.96355,512.48502 417.03369,502.89498 425.21875,497.125 C 431.57637,492.64325 446.14599,489.84741 460.46875,485.9375 C 474.79151,482.02759 489.1452,476.91728 495.34375,466.25 C 498.67503,460.51711 497.74214,451.41029 494.78125,440.8125 C 491.82036,430.21471 486.62955,418.1026 480.5,406.65625 C 474.37045,395.2099 467.31414,384.4357 460.59375,376.5625 C 457.23355,372.6259 453.9718,369.41702 450.875,367.1875 C 447.7782,364.95798 444.81066,363.65175 441.96875,363.90625 z "
           style="fill:#000080;fill-opacity:1;fill-rule:evenodd;stroke:none;stroke-width:3;stroke-linecap:butt;stroke-linejoin:miter;stroke-miterlimit:4;stroke-opacity:1"
           id="path2221" />
        <path
           d="M 422.57732,524.11636 L 422.83276,545.06891 L 409.06412,529.27337 C 414.17344,530.68643 419.62476,528.58667 422.57732,524.11636 z "
           style="font-size:12px;fill:#000080;fill-rule:evenodd;stroke-width:0.625;stroke-linejoin:round"
           id="path3421" />
      </g>
      <path
         d="M 443.625,357.65625 L 443.25,357.6875 L 443.40625,359.65625 L 443.625,359.625 L 443.625,359.65625 L 444.59375,359.6875 L 445.59375,359.84375 L 445.6875,359.875 L 445.71875,359.875 L 446.65625,360.15625 L 446.71875,360.1875 L 446.75,360.1875 L 447.75,360.5625 L 447.84375,360.59375 L 448.65625,361 L 449.5,359.1875 L 448.625,358.75 L 448.59375,358.75 L 448.5625,358.71875 L 447.375,358.28125 L 447.34375,358.25 L 447.28125,358.25 L 446.15625,357.9375 L 446.09375,357.90625 L 446.03125,357.90625 L 444.9375,357.71875 L 444.875,357.6875 L 444.8125,357.6875 L 443.75,357.65625 L 443.6875,357.625 L 443.625,357.65625 z M 436.375,360.125 L 436.34375,360.125 L 436.3125,360.15625 L 435.375,360.78125 L 435.34375,360.78125 L 435.34375,360.8125 L 434.375,361.46875 L 434.375,361.5 L 434.34375,361.53125 L 432.46875,363.0625 L 432.4375,363.09375 L 432.40625,363.125 L 432.15625,363.34375 L 433.53125,364.8125 L 433.75,364.625 L 435.5625,363.09375 L 435.625,363.0625 L 436.46875,362.4375 L 436.5,362.40625 L 437.375,361.84375 L 437.40625,361.8125 L 438.1875,361.375 L 437.15625,359.65625 L 436.375,360.125 z M 453.46875,364.15625 L 453.78125,364.4375 L 453.8125,364.46875 L 455.09375,365.5625 L 455.09375,365.53125 L 456.375,366.75 L 456.40625,366.75 L 457.71875,368.0625 L 457.78125,368.125 L 459.21875,366.71875 L 459.15625,366.65625 L 459.125,366.625 L 457.78125,365.3125 L 457.78125,365.28125 L 456.4375,364.0625 L 456.40625,364.03125 L 455.09375,362.90625 L 455.0625,362.875 L 454.6875,362.59375 L 453.46875,364.15625 z M 426.78125,369.09375 L 426.75,369.125 L 424.90625,371.4375 L 424.90625,371.46875 L 424.125,372.46875 L 425.75,373.65625 L 426.46875,372.6875 L 426.5,372.65625 L 428.3125,370.40625 L 428.3125,370.375 L 429.46875,369.03125 L 427.9375,367.75 L 426.78125,369.09375 z M 461.78125,372.5 L 464.53125,375.84375 L 464.53125,375.875 L 465.5,377.15625 L 467.09375,375.9375 L 466.125,374.625 L 466.09375,374.625 L 466.09375,374.59375 L 463.34375,371.21875 L 461.78125,372.5 z M 419.34375,379.1875 L 417.21875,382.34375 L 418.90625,383.46875 L 421,380.3125 L 422.25,378.5 L 420.59375,377.375 L 419.34375,379.1875 z M 469.03125,381.96875 L 470.0625,383.40625 L 470.0625,383.4375 L 472.375,386.90625 L 474.03125,385.78125 L 471.71875,382.3125 L 471.71875,382.28125 L 470.65625,380.8125 L 469.03125,381.96875 z M 411.90625,390.40625 L 410.59375,392.34375 L 412.25,393.46875 L 413.5625,391.53125 L 413.5625,391.5 L 415.59375,388.4375 L 413.90625,387.34375 L 411.90625,390.40625 z M 475.5625,391.9375 L 478.21875,396.375 L 478.1875,396.375 L 478.59375,397.0625 L 480.34375,396.09375 L 479.9375,395.375 L 477.28125,390.90625 L 475.5625,391.9375 z M 406.1875,398.8125 L 404.25,401.46875 L 404.25,401.5 L 403.75,402.125 L 405.34375,403.34375 L 405.84375,402.6875 L 405.84375,402.65625 L 407.8125,399.96875 L 408.875,398.4375 L 407.25,397.28125 L 406.1875,398.8125 z M 481.5,402.28125 L 483.34375,405.6875 L 483.34375,405.71875 L 484.3125,407.59375 L 486.09375,406.6875 L 485.125,404.78125 L 485.09375,404.75 L 483.28125,401.34375 L 481.5,402.28125 z M 317.59375,408.65625 L 318.78125,408.65625 L 318.8125,408.65625 L 321.1875,408.78125 L 321.21875,408.78125 L 323.53125,408.96875 L 323.65625,406.96875 L 321.34375,406.78125 L 321.3125,406.78125 L 318.875,406.65625 L 318.84375,406.65625 L 317.625,406.65625 L 317.59375,408.65625 z M 398.28125,408.875 L 398.28125,408.90625 L 396.25,411.03125 L 396.21875,411.0625 L 396.125,411.1875 L 397.5,412.625 L 397.65625,412.46875 L 397.6875,412.46875 L 397.6875,412.4375 L 399.75,410.21875 L 399.78125,410.21875 L 399.78125,410.1875 L 401.59375,408.09375 L 400.09375,406.78125 L 398.28125,408.875 z M 310.4375,407.34375 L 310.40625,407.34375 L 310.375,407.34375 L 307.28125,407.9375 L 307.25,407.9375 L 307.21875,407.9375 L 305.53125,408.34375 L 305.96875,410.28125 L 307.65625,409.90625 L 307.6875,409.90625 L 310.71875,409.3125 L 310.75,409.3125 L 311.78125,409.1875 L 311.5,407.1875 L 310.4375,407.34375 z M 329.375,409.71875 L 330.34375,409.875 L 330.375,409.875 L 332.53125,410.28125 L 332.5625,410.28125 L 335.21875,410.875 L 335.65625,408.9375 L 332.96875,408.3125 L 332.9375,408.3125 L 330.71875,407.90625 L 330.6875,407.90625 L 329.6875,407.75 L 329.375,409.71875 z M 297.03125,410.625 L 297,410.625 L 293.90625,411.625 L 294.5,413.53125 L 297.59375,412.53125 L 297.625,412.53125 L 300.21875,411.78125 L 299.65625,409.84375 L 297.03125,410.625 z M 340.96875,412.34375 L 344.875,413.5 L 344.90625,413.5 L 346.65625,414.09375 L 347.28125,412.1875 L 345.5,411.59375 L 345.46875,411.59375 L 341.53125,410.40625 L 340.96875,412.34375 z M 486.96875,412.9375 L 488.09375,415.25 L 488.09375,415.28125 L 489.5,418.34375 L 491.3125,417.53125 L 489.90625,414.4375 L 489.90625,414.40625 L 488.78125,412.0625 L 486.96875,412.9375 z M 286,414.40625 L 282.5625,415.71875 L 283.28125,417.59375 L 286.6875,416.28125 L 286.71875,416.28125 L 288.875,415.5 L 288.1875,413.625 L 286,414.40625 z M 352.34375,416 L 352.46875,416.03125 L 358,417.96875 L 358.65625,416.09375 L 353.125,414.15625 L 353,414.09375 L 352.34375,416 z M 391.0625,415.6875 L 391.03125,415.6875 L 390,416.4375 L 389.96875,416.46875 L 388.90625,417.15625 L 388.875,417.15625 L 387.84375,417.78125 L 387.8125,417.8125 L 386.875,418.3125 L 387.8125,420.0625 L 388.78125,419.5625 L 388.8125,419.53125 L 388.84375,419.53125 L 389.9375,418.875 L 389.96875,418.84375 L 391.09375,418.125 L 391.09375,418.09375 L 391.125,418.09375 L 392.21875,417.3125 L 392.21875,417.28125 L 392.25,417.28125 L 392.96875,416.71875 L 391.75,415.125 L 391.0625,415.6875 z M 363.75,419.875 L 366.3125,420.625 L 366.34375,420.625 L 366.34375,420.65625 L 369.5625,421.4375 L 369.5625,421.46875 L 369.59375,421.46875 L 369.8125,420.46875 L 370.03125,419.5 L 370,419.5 L 366.84375,418.6875 L 366.84375,418.71875 L 364.3125,417.9375 L 363.75,419.875 z M 271.4375,420.3125 L 272.21875,422.15625 L 277.75,419.8125 L 276.96875,417.96875 L 271.4375,420.3125 z M 381.25,420.25 L 381.1875,420.25 L 380.09375,420.40625 L 380.03125,420.40625 L 378.9375,420.5 L 378.90625,420.5 L 377.53125,420.5 L 377.46875,420.5 L 376.0625,420.4375 L 376.03125,420.4375 L 375.84375,420.40625 L 375.65625,422.40625 L 375.875,422.4375 L 375.90625,422.4375 L 375.9375,422.4375 L 377.4375,422.5 L 377.46875,422.5 L 378.96875,422.5 L 379,422.5 L 379.03125,422.5 L 380.25,422.40625 L 380.28125,422.40625 L 380.3125,422.40625 L 381.5,422.21875 L 381.53125,422.21875 L 381.5625,422.21875 L 381.90625,422.15625 L 381.5,420.1875 L 381.25,420.25 z M 263.59375,423.78125 L 263.5625,423.78125 L 263.5625,423.8125 L 260.46875,425.25 L 261.3125,427.0625 L 264.40625,425.625 L 266.75,424.5625 L 265.9375,422.75 L 263.59375,423.78125 z M 491.90625,423.8125 L 492.34375,424.8125 L 492.34375,424.84375 L 494.15625,429.34375 L 496.03125,428.59375 L 494.1875,424.0625 L 494.1875,424.03125 L 493.75,423.03125 L 491.90625,423.8125 z M 249.9375,430.28125 L 249.90625,430.28125 L 249.59375,430.4375 L 250.5,432.21875 L 250.78125,432.0625 L 250.8125,432.0625 L 255.875,429.59375 L 255,427.8125 L 249.9375,430.28125 z M 243.9375,433.25 L 243.90625,433.25 L 238.875,435.84375 L 239.78125,437.625 L 244.8125,435.0625 L 244.84375,435.03125 L 245.125,434.90625 L 244.21875,433.09375 L 243.9375,433.25 z M 496.21875,434.9375 L 497.46875,438.5625 L 497.46875,438.59375 L 498.09375,440.59375 L 500,440 L 499.375,437.96875 L 499.375,437.9375 L 498.125,434.28125 L 496.21875,434.9375 z M 231.0625,439.96875 L 228.28125,441.5 L 229.21875,443.25 L 232,441.71875 L 232.03125,441.71875 L 234.5,440.40625 L 233.5625,438.65625 L 231.0625,439.96875 z M 499.75,446.34375 L 499.90625,446.9375 L 499.90625,447 L 500.78125,450.8125 L 500.78125,450.84375 L 501,452.125 L 502.96875,451.75 L 502.75,450.46875 L 502.75,450.4375 L 502.71875,450.40625 L 501.84375,446.5 L 501.84375,446.46875 L 501.65625,445.8125 L 499.75,446.34375 z M 501.75,457.9375 L 501.8125,459.21875 L 501.8125,459.28125 L 501.8125,460.65625 L 501.8125,460.6875 L 501.75,461.96875 L 501.75,462.03125 L 501.59375,463.28125 L 501.53125,463.6875 L 503.5,464.03125 L 503.59375,463.5625 L 503.59375,463.53125 L 503.59375,463.5 L 503.75,462.21875 L 503.75,462.1875 L 503.75,462.15625 L 503.8125,460.75 L 503.8125,460.71875 L 503.8125,460.6875 L 503.8125,459.21875 L 503.8125,459.1875 L 503.75,457.84375 L 501.75,457.9375 z M 499.15625,468.8125 L 499.09375,468.90625 L 497.78125,470.53125 L 497.71875,470.59375 L 496.25,472.15625 L 496.21875,472.1875 L 495.375,472.96875 L 496.71875,474.4375 L 497.59375,473.625 L 497.625,473.59375 L 497.65625,473.5625 L 499.21875,471.90625 L 499.25,471.875 L 499.28125,471.84375 L 500.71875,470.09375 L 500.75,470.0625 L 500.75,470.03125 L 500.90625,469.8125 L 499.25,468.6875 L 499.15625,468.8125 z M 488.84375,477.8125 L 488.8125,477.8125 L 486.71875,479.03125 L 486.6875,479.0625 L 485.6875,479.5625 L 486.625,481.34375 L 487.625,480.8125 L 487.65625,480.78125 L 489.84375,479.53125 L 489.875,479.5 L 491.875,478.25 L 490.78125,476.5625 L 488.84375,477.8125 z M 479.8125,482.34375 L 479.78125,482.34375 L 477.375,483.34375 L 477.34375,483.34375 L 474.875,484.28125 L 474.84375,484.3125 L 475.5,486.1875 L 475.5625,486.15625 L 478.09375,485.21875 L 478.09375,485.1875 L 480.5625,484.1875 L 480.59375,484.1875 L 481.15625,483.9375 L 480.34375,482.09375 L 479.8125,482.34375 z M 467.25,486.875 L 463.46875,488.03125 L 464.0625,489.9375 L 467.8125,488.8125 L 467.84375,488.8125 L 467.84375,488.78125 L 469.8125,488.15625 L 469.1875,486.25 L 467.25,486.875 z M 456.96875,489.96875 L 452,491.4375 L 451.96875,491.4375 L 452.28125,492.40625 L 452.5625,493.34375 L 457.53125,491.90625 L 458.3125,491.65625 L 457.75,489.75 L 456.96875,489.96875 z M 442.78125,494.40625 L 442.75,494.40625 L 440.6875,495.1875 L 440.65625,495.1875 L 440.5,495.25 L 441.25,497.09375 L 441.375,497.0625 L 441.40625,497.0625 L 443.40625,496.28125 L 443.4375,496.28125 L 446.875,495.125 L 446.21875,493.25 L 442.78125,494.40625 z M 433.375,498.625 L 433.34375,498.65625 L 431.90625,499.59375 L 431.875,499.59375 L 431.84375,499.625 L 430.21875,500.84375 L 430.1875,500.875 L 430.15625,500.90625 L 429.78125,501.21875 L 431.09375,502.71875 L 431.40625,502.4375 L 431.46875,502.40625 L 432.96875,501.25 L 433,501.28125 L 434.375,500.375 L 434.4375,500.34375 L 435.90625,499.5 L 434.90625,497.75 L 433.375,498.625 z M 425.3125,506.125 L 425.28125,506.15625 L 425.25,506.1875 L 424.5,507.5 L 424.46875,507.53125 L 424.4375,507.5625 L 423.84375,508.875 L 423.8125,508.90625 L 423.78125,508.9375 L 423.3125,510.25 L 423.28125,510.28125 L 423.28125,510.34375 L 422.9375,511.53125 L 424.875,512.0625 L 425.1875,510.9375 L 425.21875,510.875 L 425.625,509.75 L 425.65625,509.65625 L 426.21875,508.53125 L 426.25,508.4375 L 426.9375,507.28125 L 426.96875,507.21875 L 427.1875,506.9375 L 425.5625,505.78125 L 425.3125,506.125 z M 422.65625,517.875 L 422.71875,518.375 L 422.71875,518.40625 L 422.71875,518.4375 L 422.9375,519.6875 L 422.9375,519.71875 L 423.25,520.9375 L 423.25,520.96875 L 423.59375,522.15625 L 423.625,522.1875 L 423.625,522.21875 L 424.03125,523.34375 L 424.03125,523.375 L 424.03125,523.40625 L 424.25,523.90625 L 426.09375,523.15625 L 425.90625,522.6875 L 425.875,522.65625 L 425.53125,521.59375 L 425.1875,520.46875 L 425.15625,520.40625 L 424.90625,519.3125 L 424.90625,519.25 L 424.6875,518.15625 L 424.6875,518.09375 L 424.625,517.625 L 422.65625,517.875 z M 426.90625,529.40625 L 427.0625,529.65625 L 427.0625,529.6875 L 428.9375,532.8125 L 428.9375,532.84375 L 429.625,533.96875 L 429.59375,533.96875 L 429.875,534.5625 L 431.6875,533.6875 L 431.40625,533.09375 L 431.40625,533.0625 L 431.375,533.03125 L 430.6875,531.8125 L 430.65625,531.8125 L 428.8125,528.6875 L 428.78125,528.65625 L 428.65625,528.4375 L 426.90625,529.40625 z "
         style="fill:#800080;fill-opacity:1;fill-rule:evenodd;stroke:none;stroke-width:2;stroke-linecap:butt;stroke-linejoin:miter;stroke-miterlimit:4;stroke-dasharray:6, 6;stroke-dashoffset:0;stroke-opacity:1"
         id="path3394" />
      <path
         d="M 230.94207,446.32283 L 226.54991,438.42153"
         style="fill:#800080;fill-opacity:0.75;fill-rule:evenodd;stroke:#800080;stroke-width:2;stroke-miterlimit:4;stroke-dasharray:none;stroke-opacity:1"
         id="path3429" />
      <path
         d="M 426.74037,536.08672 L 435.18625,532.86354"
         style="fill:#800080;fill-opacity:0.75;fill-rule:evenodd;stroke:#800080;stroke-width:2;stroke-miterlimit:4;stroke-dasharray:none;stroke-opacity:1"
         id="path3431" />
      <g
         style="fill:#008000"
         id="g3406">
        <path
           d="M 230.96875,451.03125 L 236.34375,453.71875 L 237.21875,451.9375 L 231.875,449.25 L 230.96875,451.03125 z M 241.71875,456.40625 L 247.0625,459.09375 L 247.96875,457.28125 L 242.59375,454.625 L 241.71875,456.40625 z M 252.4375,461.75 L 257.8125,464.4375 L 258.6875,462.65625 L 253.34375,459.96875 L 252.4375,461.75 z M 263.1875,467.125 L 268.53125,469.8125 L 269.4375,468 L 264.0625,465.34375 L 263.1875,467.125 z M 273.90625,472.46875 L 279.28125,475.15625 L 280.1875,473.375 L 274.8125,470.6875 L 273.90625,472.46875 z M 284.65625,477.84375 L 290.03125,480.53125 L 290.90625,478.75 L 285.53125,476.0625 L 284.65625,477.84375 z M 295.375,483.21875 L 300.75,485.875 L 301.65625,484.09375 L 296.28125,481.40625 L 295.375,483.21875 z M 306.125,488.5625 L 311.5,491.25 L 312.375,489.46875 L 307,486.78125 L 306.125,488.5625 z M 316.84375,493.9375 L 322.21875,496.59375 L 323.125,494.8125 L 317.75,492.125 L 316.84375,493.9375 z M 327.59375,499.28125 L 332.96875,501.96875 L 333.84375,500.1875 L 328.5,497.5 L 327.59375,499.28125 z M 338.34375,504.65625 L 343.6875,507.3125 L 344.59375,505.53125 L 339.21875,502.84375 L 338.34375,504.65625 z M 349.0625,510 L 354.4375,512.6875 L 355.3125,510.90625 L 349.96875,508.21875 L 349.0625,510 z M 359.8125,515.375 L 365.15625,518.0625 L 366.0625,516.25 L 360.6875,513.5625 L 359.8125,515.375 z M 370.53125,520.71875 L 375.90625,523.40625 L 376.8125,521.625 L 371.4375,518.9375 L 370.53125,520.71875 z M 381.28125,526.09375 L 386.65625,528.78125 L 387.53125,526.96875 L 382.15625,524.3125 L 381.28125,526.09375 z M 392,531.4375 L 397.375,534.125 L 398.28125,532.34375 L 392.90625,529.65625 L 392,531.4375 z M 402.75,536.8125 L 408.125,539.5 L 409,537.6875 L 403.625,535.03125 L 402.75,536.8125 z M 413.46875,542.15625 L 418.84375,544.84375 L 419.75,543.0625 L 414.375,540.375 L 413.46875,542.15625 z "
           style="fill:#008000;fill-opacity:1;fill-rule:evenodd;stroke:none;stroke-width:2;stroke-linecap:butt;stroke-linejoin:miter;stroke-miterlimit:4;stroke-dasharray:6, 6;stroke-dashoffset:0;stroke-opacity:1"
           id="path3404" />
        <path
           d="M 414.46018,536.13013 L 424.03669,546.30042 L 410.15279,544.75711 C 413.29833,543.1461 415.02722,539.6564 414.46018,536.13013 z "
           style="font-size:12px;fill:#008000;fill-rule:evenodd;stroke-width:0.625;stroke-linejoin:round"
           id="path3412" />
      </g>
      <rect
         width="96.063828"
         height="42.784733"
         x="446.41428"
         y="508.53864"
         style="fill:#0000ff;fill-opacity:0.36184208;stroke:none;stroke-width:2;stroke-linecap:butt;stroke-linejoin:miter;stroke-miterlimit:4;stroke-dasharray:none;stroke-dashoffset:0;stroke-opacity:1"
         id="rect3436" />
      <g
         style="fill:#000080"
         id="g3440">
        <path
           d="M 461.21875,520 L 461.21875,524 L 532.25,524 L 532.25,520 L 461.21875,520 z "
           style="fill:#000080;fill-opacity:1;fill-rule:evenodd;stroke:none;stroke-width:4;stroke-linecap:butt;stroke-linejoin:miter;stroke-miterlimit:4;stroke-dasharray:none;stroke-opacity:1"
           id="path3438" />
        <path
           d="M 511.32821,512.31201 L 537.55031,521.95454 L 511.32821,531.59707 C 515.5174,525.90412 515.49327,518.11518 511.32821,512.31201 z "
           style="font-size:12px;fill:#000080;fill-rule:evenodd;stroke-width:0.625;stroke-linejoin:round"
           id="path3446" />
      </g>
      <path
         d="M 459.44894,542.96869 L 459.44894,533.58459 L 462.98879,533.58459 C 463.61182,533.5846 464.08764,533.61447 464.41624,533.67421 C 464.87712,533.75103 465.26332,533.89719 465.57485,534.11269 C 465.88636,534.3282 466.13708,534.63012 466.32699,535.01845 C 466.51688,535.40679 466.61184,535.83354 466.61184,536.29868 C 466.61184,537.0967 466.35791,537.77202 465.8501,538.32465 C 465.34227,538.87729 464.42477,539.1536 463.09761,539.15359 L 460.69077,539.15359 L 460.69077,542.96869 L 459.44894,542.96869 z M 460.69077,538.04619 L 463.1168,538.04619 C 463.91908,538.04621 464.48878,537.89684 464.82592,537.59812 C 465.16304,537.2994 465.3316,536.87906 465.33161,536.33709 C 465.3316,535.94449 465.23238,535.60843 465.03396,535.32891 C 464.83551,535.0494 464.57413,534.86483 464.24981,534.7752 C 464.0407,534.71974 463.6545,534.692 463.09121,534.69199 L 460.69077,534.69199 L 460.69077,538.04619 z M 472.49451,542.13013 C 472.06776,542.49287 471.65701,542.74892 471.26228,542.89828 C 470.86754,543.04764 470.44399,543.12232 469.99165,543.12232 C 469.24485,543.12232 468.67088,542.93988 468.26974,542.57502 C 467.8686,542.21016 467.66803,541.74394 467.66803,541.17637 C 467.66803,540.8435 467.74378,540.53945 467.89527,540.2642 C 468.04677,539.98896 468.2452,539.76812 468.49058,539.60168 C 468.73596,539.43525 469.01228,539.30937 469.31953,539.22401 C 469.5457,539.16427 469.8871,539.10666 470.34372,539.05117 C 471.27402,538.94023 471.95894,538.80794 472.39849,538.6543 C 472.40275,538.49642 472.40488,538.39613 472.40489,538.35345 C 472.40488,537.88404 472.29606,537.55332 472.07843,537.36127 C 471.78397,537.10096 471.34656,536.97081 470.76619,536.97081 C 470.22422,536.97081 469.82415,537.06576 469.56597,537.25565 C 469.30779,537.44556 469.11682,537.78162 468.99307,538.26384 L 467.86647,538.11021 C 467.96888,537.62799 468.13745,537.23859 468.37216,536.942 C 468.60686,536.64542 468.94613,536.41711 469.38994,536.25708 C 469.83375,536.09705 470.34798,536.01704 470.93262,536.01703 C 471.51299,536.01704 471.98454,536.08532 472.34727,536.22187 C 472.71001,536.35844 472.97672,536.53019 473.14743,536.73716 C 473.31812,536.94414 473.4376,537.20552 473.50589,537.5213 C 473.54429,537.71761 473.56349,538.0718 473.56349,538.58389 L 473.56349,540.12017 C 473.56349,541.1913 473.58803,541.86876 473.63711,542.15254 C 473.68618,542.43633 473.78326,542.70837 473.92837,542.96869 L 472.72495,542.96869 C 472.60546,542.72971 472.52863,542.45019 472.49451,542.13013 L 472.49451,542.13013 z M 472.39849,539.55687 C 471.98027,539.72757 471.35296,539.87266 470.51654,539.99215 C 470.04286,540.06043 469.70787,540.13725 469.51156,540.22259 C 469.31526,540.30795 469.16377,540.43276 469.05708,540.59706 C 468.9504,540.76136 468.89705,540.94379 468.89705,541.14436 C 468.89705,541.45161 469.01334,541.70767 469.24592,541.91249 C 469.47848,542.11734 469.81882,542.21976 470.26691,542.21975 C 470.71071,542.21976 471.10545,542.12267 471.45112,541.9285 C 471.79677,541.73433 472.05068,541.46869 472.21286,541.13155 C 472.3366,540.87124 472.39848,540.48718 472.39849,539.97934 L 472.39849,539.55687 z M 477.87147,541.9381 L 478.03791,542.95588 C 477.71358,543.02416 477.42339,543.0583 477.16735,543.0583 C 476.74914,543.0583 476.42481,542.99216 476.19438,542.85987 C 475.96393,542.72758 475.80177,542.55368 475.70789,542.33817 C 475.61401,542.12267 475.56706,541.66925 475.56706,540.97793 L 475.56706,537.06682 L 474.72211,537.06682 L 474.72211,536.17066 L 475.56706,536.17066 L 475.56706,534.48715 L 476.71287,533.79583 L 476.71287,536.17066 L 477.87147,536.17066 L 477.87147,537.06682 L 476.71287,537.06682 L 476.71287,541.04194 C 476.71286,541.37053 476.73314,541.58177 476.77368,541.67566 C 476.81422,541.76954 476.88037,541.84422 476.97211,541.8997 C 477.06386,541.95517 477.19509,541.98291 477.36578,541.98291 C 477.49381,541.98291 477.66237,541.96798 477.87147,541.9381 L 477.87147,541.9381 z M 478.99168,542.96869 L 478.99168,533.58459 L 480.14389,533.58459 L 480.14389,536.9516 C 480.68159,536.32856 481.36011,536.01704 482.17945,536.01703 C 482.68302,536.01704 483.12043,536.11626 483.4917,536.31468 C 483.86295,536.51313 484.12861,536.7873 484.28864,537.13723 C 484.44867,537.48717 484.52868,537.99499 484.52868,538.66071 L 484.52868,542.96869 L 483.37648,542.96869 L 483.37648,538.66071 C 483.37647,538.08461 483.25164,537.66533 483.002,537.40289 C 482.75235,537.14044 482.39923,537.00922 481.94262,537.00921 C 481.60121,537.00922 481.28009,537.09776 480.97924,537.27486 C 480.67839,537.45196 480.46395,537.69201 480.33592,537.99499 C 480.2079,538.29799 480.14389,538.71619 480.14389,539.24961 L 480.14389,542.96869 L 478.99168,542.96869 z M 492.44051,541.9381 L 492.60695,542.95588 C 492.28262,543.02416 491.99243,543.0583 491.73639,543.0583 C 491.31818,543.0583 490.99385,542.99216 490.76342,542.85987 C 490.53297,542.72758 490.37081,542.55368 490.27692,542.33817 C 490.18304,542.12267 490.1361,541.66925 490.1361,540.97793 L 490.1361,537.06682 L 489.29115,537.06682 L 489.29115,536.17066 L 490.1361,536.17066 L 490.1361,534.48715 L 491.2819,533.79583 L 491.2819,536.17066 L 492.44051,536.17066 L 492.44051,537.06682 L 491.2819,537.06682 L 491.2819,541.04194 C 491.2819,541.37053 491.30218,541.58177 491.34272,541.67566 C 491.38326,541.76954 491.4494,541.84422 491.54115,541.8997 C 491.6329,541.95517 491.76413,541.98291 491.93482,541.98291 C 492.06285,541.98291 492.23141,541.96798 492.44051,541.9381 L 492.44051,541.9381 z M 497.99672,542.13013 C 497.56997,542.49287 497.15923,542.74892 496.7645,542.89828 C 496.36976,543.04764 495.94621,543.12232 495.49387,543.12232 C 494.74707,543.12232 494.1731,542.93988 493.77196,542.57502 C 493.37081,542.21016 493.17025,541.74394 493.17025,541.17637 C 493.17025,540.8435 493.246,540.53945 493.39749,540.2642 C 493.54898,539.98896 493.74742,539.76812 493.9928,539.60168 C 494.23818,539.43525 494.51449,539.30937 494.82175,539.22401 C 495.04792,539.16427 495.38932,539.10666 495.84593,539.05117 C 496.77623,538.94023 497.46115,538.80794 497.90071,538.6543 C 497.90497,538.49642 497.9071,538.39613 497.90711,538.35345 C 497.9071,537.88404 497.79828,537.55332 497.58065,537.36127 C 497.28618,537.10096 496.84877,536.97081 496.26841,536.97081 C 495.72644,536.97081 495.32637,537.06576 495.06819,537.25565 C 494.81,537.44556 494.61904,537.78162 494.49529,538.26384 L 493.36868,538.11021 C 493.4711,537.62799 493.63967,537.23859 493.87437,536.942 C 494.10908,536.64542 494.44834,536.41711 494.89216,536.25708 C 495.33597,536.09705 495.85019,536.01704 496.43484,536.01703 C 497.01521,536.01704 497.48676,536.08532 497.84949,536.22187 C 498.21222,536.35844 498.47894,536.53019 498.64965,536.73716 C 498.82033,536.94414 498.93982,537.20552 499.00811,537.5213 C 499.04651,537.71761 499.06571,538.0718 499.06571,538.58389 L 499.06571,540.12017 C 499.06571,541.1913 499.09025,541.86876 499.13933,542.15254 C 499.18839,542.43633 499.28548,542.70837 499.43058,542.96869 L 498.22717,542.96869 C 498.10767,542.72971 498.03085,542.45019 497.99672,542.13013 L 497.99672,542.13013 z M 497.90071,539.55687 C 497.48249,539.72757 496.85517,539.87266 496.01876,539.99215 C 495.54508,540.06043 495.21009,540.13725 495.01378,540.22259 C 494.81748,540.30795 494.66598,540.43276 494.55929,540.59706 C 494.45262,540.76136 494.39927,540.94379 494.39927,541.14436 C 494.39927,541.45161 494.51555,541.70767 494.74814,541.91249 C 494.9807,542.11734 495.32104,542.21976 495.76912,542.21975 C 496.21293,542.21976 496.60767,542.12267 496.95333,541.9285 C 497.29899,541.73433 497.5529,541.46869 497.71508,541.13155 C 497.83882,540.87124 497.9007,540.48718 497.90071,539.97934 L 497.90071,539.55687 z M 500.86444,542.96869 L 500.86444,533.58459 L 502.01665,533.58459 L 502.01665,538.93596 L 504.74354,536.17066 L 506.23501,536.17066 L 503.63615,538.69272 L 506.49746,542.96869 L 505.07641,542.96869 L 502.8296,539.49286 L 502.01665,540.2738 L 502.01665,542.96869 L 500.86444,542.96869 z M 512.06647,540.7795 L 513.25709,540.92672 C 513.06931,541.62231 512.72152,542.16214 512.2137,542.54621 C 511.70586,542.93029 511.05721,543.12232 510.26774,543.12232 C 509.27343,543.12232 508.48502,542.81612 507.90251,542.20375 C 507.32001,541.59137 507.02876,540.73255 507.02876,539.62729 C 507.02876,538.48362 507.32321,537.59599 507.91212,536.9644 C 508.50102,536.33283 509.26489,536.01704 510.20374,536.01703 C 511.11269,536.01704 511.85522,536.32643 512.43134,536.9452 C 513.00744,537.56398 513.29549,538.43454 513.2955,539.55687 C 513.29549,539.62516 513.29336,539.72757 513.2891,539.86412 L 508.21937,539.86412 C 508.26204,540.61093 508.47328,541.18277 508.85309,541.57964 C 509.23288,541.97651 509.70658,542.17495 510.27414,542.17495 C 510.69662,542.17495 511.05721,542.064 511.35594,541.84208 C 511.65466,541.62018 511.89149,541.26598 512.06647,540.7795 L 512.06647,540.7795 z M 508.28338,538.91676 L 512.07927,538.91676 C 512.02805,538.34492 511.88296,537.91605 511.644,537.63012 C 511.27698,537.18632 510.80117,536.9644 510.21654,536.9644 C 509.68737,536.9644 509.24249,537.1415 508.8819,537.4957 C 508.5213,537.8499 508.32179,538.32358 508.28338,538.91676 L 508.28338,538.91676 z M 514.71015,542.96869 L 514.71015,536.17066 L 515.74714,536.17066 L 515.74714,537.13723 C 516.24642,536.39043 516.96762,536.01704 517.91072,536.01703 C 518.3204,536.01704 518.697,536.09065 519.04053,536.23787 C 519.38405,536.3851 519.64116,536.57821 519.81187,536.81717 C 519.98256,537.05616 520.10205,537.33994 520.17033,537.66853 C 520.213,537.88191 520.23434,538.2553 520.23435,538.78873 L 520.23435,542.96869 L 519.08214,542.96869 L 519.08214,538.83354 C 519.08214,538.36412 519.03733,538.01313 518.94771,537.78055 C 518.8581,537.54798 518.69913,537.36234 518.47083,537.22365 C 518.24252,537.08496 517.97473,537.01562 517.66749,537.01561 C 517.17673,537.01562 516.75318,537.17138 516.39685,537.4829 C 516.04052,537.79443 515.86235,538.38546 515.86235,539.25601 L 515.86235,542.96869 L 514.71015,542.96869 z "
         style="font-size:12px;font-style:normal;font-weight:normal;fill:#000080;fill-opacity:1;stroke:none;stroke-width:1px;stroke-linecap:butt;stroke-linejoin:miter;stroke-opacity:1;font-family:Bitstream Vera Sans"
         id="text3448" />
      <path
         d="M 253.86697,514.46809 L 253.86697,505.33054 L 257.01462,505.33054 C 257.72517,505.33055 258.26745,505.37418 258.64143,505.46143 C 259.165,505.58194 259.61169,505.8001 259.98152,506.11589 C 260.46353,506.52312 260.82401,507.04358 261.06294,507.67725 C 261.30187,508.31095 261.42133,509.03501 261.42134,509.84945 C 261.42133,510.54339 261.34031,511.15838 261.17825,511.69441 C 261.01619,512.23046 260.80843,512.67403 260.55496,513.02516 C 260.30148,513.37628 260.02411,513.65261 259.72286,513.85414 C 259.42159,514.05568 259.05799,514.20838 258.63208,514.31227 C 258.20615,514.41615 257.71687,514.46809 257.16422,514.46809 L 253.86697,514.46809 z M 255.07616,513.38979 L 257.02709,513.38979 C 257.6296,513.38979 258.10228,513.33369 258.4451,513.2215 C 258.7879,513.1093 259.06111,512.9514 259.26472,512.74778 C 259.55144,512.46107 259.77479,512.07567 259.93478,511.59157 C 260.09475,511.10747 260.17474,510.52054 260.17474,509.83076 C 260.17474,508.87503 260.01788,508.14058 259.70415,507.62739 C 259.39042,507.11421 259.00917,506.77036 258.56041,506.59583 C 258.23628,506.47118 257.71479,506.40885 256.99592,506.40884 L 255.07616,506.40884 L 255.07616,513.38979 z M 262.95465,506.62077 L 262.95465,505.33054 L 264.07659,505.33054 L 264.07659,506.62077 L 262.95465,506.62077 z M 262.95465,514.46809 L 262.95465,507.84866 L 264.07659,507.84866 L 264.07659,514.46809 L 262.95465,514.46809 z M 265.34189,512.49224 L 266.45136,512.31772 C 266.51369,512.76234 266.68717,513.10307 266.97181,513.33992 C 267.25645,513.57677 267.65432,513.6952 268.16543,513.6952 C 268.68068,513.6952 269.06298,513.59028 269.3123,513.38044 C 269.56162,513.1706 269.68628,512.92439 269.68628,512.64182 C 269.68628,512.38835 269.57616,512.18889 269.35593,512.04346 C 269.20218,511.94374 268.81989,511.817 268.20906,511.66325 C 267.38631,511.45548 266.81599,511.27577 266.49811,511.1241 C 266.18022,510.97243 265.93922,510.76259 265.77508,510.49456 C 265.61094,510.22655 265.52888,509.93048 265.52888,509.60637 C 265.52888,509.31134 265.5964,509.03812 265.73145,508.78673 C 265.8665,508.53534 266.05037,508.32653 266.28307,508.16031 C 266.45759,508.03151 266.69548,507.92243 266.99675,507.83308 C 267.298,507.74375 267.62108,507.69908 267.96597,507.69907 C 268.48539,507.69908 268.94143,507.77388 269.33412,507.92346 C 269.72679,508.07306 270.01662,508.27563 270.20362,508.53118 C 270.3906,508.78674 270.51942,509.1285 270.59006,509.5565 L 269.49306,509.70609 C 269.44319,509.36536 269.29879,509.09942 269.05986,508.90827 C 268.82093,508.71713 268.48331,508.62156 268.047,508.62156 C 267.53175,508.62156 267.16399,508.70674 266.94376,508.8771 C 266.72353,509.04748 266.61342,509.24693 266.61342,509.47547 C 266.61342,509.62091 266.65913,509.7518 266.75054,509.86815 C 266.84196,509.98866 266.98532,510.08839 267.18062,510.16733 C 267.29281,510.20889 267.62315,510.30446 268.17166,510.45405 C 268.96532,510.66598 269.51902,510.83946 269.83276,510.9745 C 270.14647,511.10956 270.39268,511.3059 270.57136,511.56352 C 270.75003,511.82115 270.83938,512.14111 270.83938,512.5234 C 270.83938,512.89738 270.7303,513.24954 270.51215,513.57989 C 270.29399,513.91024 269.97923,514.16579 269.56785,514.34655 C 269.15647,514.5273 268.69108,514.61769 268.17166,514.61769 C 267.31151,514.61769 266.65601,514.43901 266.20516,514.08165 C 265.7543,513.72429 265.46655,513.19449 265.34189,512.49224 L 265.34189,512.49224 z M 272.17324,517.00492 L 272.17324,507.84866 L 273.19545,507.84866 L 273.19545,508.70882 C 273.43646,508.37224 273.70863,508.1198 274.01197,507.9515 C 274.31531,507.78323 274.68305,507.69908 275.11521,507.69907 C 275.68033,507.69908 276.17897,507.84451 276.61113,508.13538 C 277.04327,508.42626 277.36946,508.8366 277.58971,509.36639 C 277.80993,509.8962 277.92005,510.47691 277.92005,511.10852 C 277.92005,511.78583 277.7985,512.39563 277.55542,512.93789 C 277.31233,513.48016 276.95913,513.8957 276.49582,514.18449 C 276.0325,514.47328 275.54528,514.61769 275.03418,514.61769 C 274.6602,514.61769 274.32466,514.53874 274.02755,514.38083 C 273.73045,514.22293 273.48632,514.02347 273.29518,513.78246 L 273.29518,517.00492 L 272.17324,517.00492 z M 273.18922,511.19578 C 273.18922,512.04762 273.36166,512.67715 273.70656,513.08437 C 274.05144,513.49159 274.46905,513.6952 274.95938,513.6952 C 275.45802,513.6952 275.88497,513.48432 276.24026,513.06255 C 276.59553,512.64079 276.77317,511.98736 276.77318,511.10228 C 276.77317,510.25875 276.59969,509.62714 276.25273,509.20745 C 275.90576,508.78777 275.49126,508.57793 275.00925,508.57792 C 274.53138,508.57793 274.10857,508.80128 273.74083,509.24796 C 273.37309,509.69467 273.18922,510.34394 273.18922,511.19578 L 273.18922,511.19578 z M 279.25391,514.46809 L 279.25391,505.33054 L 280.37585,505.33054 L 280.37585,514.46809 L 279.25391,514.46809 z M 286.44054,513.65157 C 286.025,514.00477 285.62505,514.25409 285.24069,514.39953 C 284.85632,514.54497 284.4439,514.61769 284.00344,514.61769 C 283.27626,514.61769 282.71737,514.44004 282.32677,514.08476 C 281.93617,513.72949 281.74087,513.27552 281.74087,512.72286 C 281.74087,512.39874 281.81463,512.10268 281.96214,511.83465 C 282.10965,511.56664 282.30288,511.35161 282.54181,511.18954 C 282.78074,511.02749 283.0498,510.9049 283.34898,510.8218 C 283.56921,510.76362 283.90164,510.70753 284.34626,510.6535 C 285.25212,510.54547 285.91904,510.41665 286.34705,510.26706 C 286.35119,510.11331 286.35327,510.01567 286.35328,509.97411 C 286.35327,509.51703 286.24731,509.19499 286.0354,509.008 C 285.74868,508.75453 285.32275,508.62779 284.75764,508.62779 C 284.2299,508.62779 283.84034,508.72025 283.58895,508.90515 C 283.33756,509.09007 283.1516,509.4173 283.0311,509.88685 L 281.93409,509.73726 C 282.03382,509.26771 282.19796,508.88854 282.4265,508.59974 C 282.65503,508.31095 282.98539,508.08864 283.41754,507.93281 C 283.84969,507.77699 284.35041,507.69908 284.91969,507.69907 C 285.48481,507.69908 285.94398,507.76557 286.29718,507.89853 C 286.65038,508.03151 286.91009,508.19875 287.07631,508.40028 C 287.24251,508.60182 287.35887,508.85634 287.42535,509.16382 C 287.46274,509.35497 287.48144,509.69986 287.48145,510.1985 L 287.48145,511.69441 C 287.48144,512.7374 287.50533,513.39706 287.55313,513.67339 C 287.6009,513.94972 287.69544,514.21462 287.83673,514.46809 L 286.66493,514.46809 C 286.54858,514.23539 286.47377,513.96322 286.44054,513.65157 L 286.44054,513.65157 z M 286.34705,511.14591 C 285.93982,511.31213 285.32898,511.45341 284.51455,511.56975 C 284.05331,511.63624 283.72712,511.71104 283.53597,511.79414 C 283.34482,511.87725 283.19731,511.99879 283.09343,512.15877 C 282.98955,512.31875 282.9376,512.4964 282.9376,512.69169 C 282.9376,512.99088 283.05083,513.2402 283.2773,513.43964 C 283.50377,513.6391 283.83515,513.73883 284.27146,513.73883 C 284.70361,513.73883 285.08798,513.6443 285.42456,513.45523 C 285.76114,513.26617 286.00839,513.0075 286.16629,512.67922 C 286.28678,512.42575 286.34704,512.05178 286.34705,511.55729 L 286.34705,511.14591 z M 293.54614,512.04346 L 294.64938,512.18682 C 294.52887,512.94724 294.22034,513.54249 293.72378,513.97257 C 293.22722,514.40265 292.61743,514.61769 291.8944,514.61769 C 290.98854,514.61769 290.26032,514.32162 289.70974,513.72948 C 289.15916,513.13736 288.88386,512.28862 288.88386,511.18331 C 288.88386,510.4686 289.00229,509.84322 289.23915,509.30718 C 289.476,508.77115 289.83647,508.36912 290.32057,508.1011 C 290.80467,507.83308 291.33135,507.69908 291.90063,507.69907 C 292.6195,507.69908 293.20747,507.88087 293.66457,508.24445 C 294.12165,508.60806 294.4146,509.12435 294.54342,509.79335 L 293.45265,509.96164 C 293.34876,509.51703 293.16488,509.18253 292.90103,508.95813 C 292.63716,508.73375 292.31824,508.62156 291.94427,508.62156 C 291.37914,508.62156 290.91997,508.82413 290.56678,509.22927 C 290.21357,509.63442 290.03697,510.27538 290.03697,511.15214 C 290.03697,512.04138 290.20733,512.68753 290.54808,513.0906 C 290.88881,513.49367 291.33343,513.6952 291.88193,513.6952 C 292.32239,513.6952 292.69015,513.56016 292.98517,513.29006 C 293.28019,513.01996 293.46718,512.60443 293.54614,512.04346 L 293.54614,512.04346 z M 300.14064,512.33641 L 301.29997,512.47977 C 301.11713,513.15709 300.77848,513.68274 300.284,514.05671 C 299.78951,514.43069 299.1579,514.61769 298.38917,514.61769 C 297.42097,514.61769 296.65328,514.31954 296.08608,513.72325 C 295.51888,513.12696 295.23528,512.29071 295.23528,511.21448 C 295.23528,510.10086 295.522,509.23655 296.09543,508.62156 C 296.66886,508.00657 297.41267,507.69908 298.32684,507.69907 C 299.21193,507.69908 299.93494,508.00034 300.49592,508.60285 C 301.05688,509.20538 301.33737,510.05306 301.33738,511.14591 C 301.33737,511.2124 301.33529,511.31213 301.33114,511.44509 L 296.39461,511.44509 C 296.43616,512.17228 296.64185,512.72909 297.01168,513.11554 C 297.3815,513.50198 297.84275,513.6952 298.3954,513.6952 C 298.80678,513.6952 299.1579,513.58717 299.44878,513.37109 C 299.73965,513.15501 299.97026,512.81012 300.14064,512.33641 L 300.14064,512.33641 z M 296.45695,510.52262 L 300.1531,510.52262 C 300.10323,509.9658 299.96195,509.5482 299.72926,509.26978 C 299.3719,508.83764 298.90858,508.62156 298.33931,508.62156 C 297.82404,508.62156 297.39085,508.794 297.03973,509.1389 C 296.68861,509.48379 296.49434,509.94503 296.45695,510.52262 L 296.45695,510.52262 z M 302.71486,514.46809 L 302.71486,507.84866 L 303.71837,507.84866 L 303.71837,508.77738 C 303.92614,508.45327 304.20246,508.19252 304.54735,507.99514 C 304.89225,507.79777 305.28492,507.69908 305.7254,507.69907 C 306.21572,507.69908 306.61774,507.80088 306.93148,508.00449 C 307.24519,508.2081 307.46647,508.49274 307.59529,508.8584 C 308.11885,508.08553 308.80032,507.69908 309.6397,507.69907 C 310.29624,507.69908 310.80111,507.88087 311.15432,508.24445 C 311.50751,508.60806 311.68412,509.16798 311.68413,509.92425 L 311.68413,514.46809 L 310.56842,514.46809 L 310.56842,510.29823 C 310.56841,509.84946 310.53205,509.52638 310.45934,509.329 C 310.38661,509.13162 310.25469,508.97268 310.06355,508.85217 C 309.8724,508.73168 309.64801,508.67142 309.39039,508.67141 C 308.92498,508.67142 308.53854,508.82621 308.23105,509.13578 C 307.92356,509.44535 307.76981,509.94088 307.76981,510.62234 L 307.76981,514.46809 L 306.64787,514.46809 L 306.64787,510.16733 C 306.64787,509.6687 306.55645,509.29472 306.37362,509.04539 C 306.19078,508.79608 305.8916,508.67142 305.47607,508.67141 C 305.16026,508.67142 304.86836,508.75453 304.60034,508.92074 C 304.33231,509.08695 304.13806,509.33004 304.01756,509.64999 C 303.89704,509.96996 303.83679,510.4312 303.8368,511.03372 L 303.8368,514.46809 L 302.71486,514.46809 z M 317.89218,512.33641 L 319.05151,512.47977 C 318.86867,513.15709 318.53001,513.68274 318.03553,514.05671 C 317.54104,514.43069 316.90944,514.61769 316.14071,514.61769 C 315.17251,514.61769 314.40482,514.31954 313.83762,513.72325 C 313.27042,513.12696 312.98682,512.29071 312.98682,511.21448 C 312.98682,510.10086 313.27354,509.23655 313.84697,508.62156 C 314.4204,508.00657 315.1642,507.69908 316.07838,507.69907 C 316.96346,507.69908 317.68648,508.00034 318.24746,508.60285 C 318.80842,509.20538 319.0889,510.05306 319.08891,511.14591 C 319.0889,511.2124 319.08683,511.31213 319.08268,511.44509 L 314.14615,511.44509 C 314.1877,512.17228 314.39339,512.72909 314.76322,513.11554 C 315.13304,513.50198 315.59428,513.6952 316.14694,513.6952 C 316.55832,513.6952 316.90944,513.58717 317.20032,513.37109 C 317.49119,513.15501 317.7218,512.81012 317.89218,512.33641 L 317.89218,512.33641 z M 314.20849,510.52262 L 317.90464,510.52262 C 317.85477,509.9658 317.71349,509.5482 317.4808,509.26978 C 317.12344,508.83764 316.66012,508.62156 316.09085,508.62156 C 315.57558,508.62156 315.14239,508.794 314.79127,509.1389 C 314.44014,509.48379 314.24588,509.94503 314.20849,510.52262 L 314.20849,510.52262 z M 320.4664,514.46809 L 320.4664,507.84866 L 321.47615,507.84866 L 321.47615,508.78984 C 321.96232,508.06267 322.66456,507.69908 323.5829,507.69907 C 323.9818,507.69908 324.34851,507.77076 324.68302,507.91411 C 325.01751,508.05747 325.26786,508.2455 325.43409,508.47819 C 325.60029,508.7109 325.71664,508.98722 325.78313,509.30718 C 325.82468,509.51496 325.84546,509.87854 325.84547,510.39795 L 325.84547,514.46809 L 324.72353,514.46809 L 324.72353,510.44158 C 324.72353,509.9845 324.67989,509.64273 324.59263,509.41626 C 324.50537,509.1898 324.35058,509.00904 324.12828,508.87399 C 323.90596,508.73894 323.64522,508.67142 323.34604,508.67141 C 322.86818,508.67142 322.45576,508.8231 322.10879,509.12643 C 321.76182,509.42977 321.58833,510.00528 321.58834,510.85296 L 321.58834,514.46809 L 320.4664,514.46809 z M 330.02156,513.46458 L 330.18362,514.45562 C 329.86782,514.52211 329.58525,514.55535 329.33594,514.55535 C 328.92871,514.55535 328.61291,514.49095 328.38852,514.36213 C 328.16413,514.23332 328.00623,514.06399 327.91481,513.85414 C 327.82339,513.6443 327.77768,513.2028 327.77768,512.52964 L 327.77768,508.72128 L 326.95494,508.72128 L 326.95494,507.84866 L 327.77768,507.84866 L 327.77768,506.20939 L 328.89339,505.53623 L 328.89339,507.84866 L 330.02156,507.84866 L 330.02156,508.72128 L 328.89339,508.72128 L 328.89339,512.59196 C 328.89339,512.91192 328.91313,513.11761 328.95261,513.20903 C 328.99208,513.30045 329.05649,513.37316 329.14583,513.42719 C 329.23517,513.48121 329.36295,513.50822 329.52916,513.50822 C 329.65381,513.50822 329.81795,513.49367 330.02156,513.46458 L 330.02156,513.46458 z "
         style="font-size:12px;font-style:normal;font-weight:normal;fill:#008000;fill-opacity:1;stroke:none;stroke-width:1px;stroke-linecap:butt;stroke-linejoin:miter;stroke-opacity:1;font-family:Bitstream Vera Sans"
         id="text3455" />
      <text
         x="360.79532"
         y="382.25836"
         style="font-size:12.64179611px;font-style:normal;font-weight:normal;fill:#800080;fill-opacity:1;stroke:none;stroke-width:1px;stroke-linecap:butt;stroke-linejoin:miter;stroke-opacity:1;font-family:Bitstream Vera Sans"
         id="text3460"
         xml:space="preserve"><tspan
           x="360.79532"
           y="382.25836"
           style="fill:#800080;font-family:Arial"
           id="tspan3462">Distance</tspan></text>
    </g>
  </g>
</svg>
